PathFileType	4	(X/Y/Z)	C:\Users\Basilio\Documents\Thesis Gigler\squatting_fais\c3dfiles\040\SLS_pre_back3\markers_experimental.trc
DataRate	CameraRate	NumFrames	NumMarkers	Units	OrigDataRate	OrigDataStartFrame	OrigNumFrames
200.000000	200.000000	4	63	mm	200.000000	0	1410
Frame#	Time	FHD			LBHD			RBHD			C7			T10			CLAV			LSHO			LUUPA			LMUPA			LDUPA			LLEP			LMEP			LRAD			LUL			LRFIN			RSHO			RUPA1			RMUPA			RDUPA			RLEP			RMEP			RRAD			RUL			RUFIN			LASI			RASI			USACR			LSACR			RSACR			LTHI1			LTHI2			LTHI3			LTHI4			LLFC			LMFC			LTIB1			LTIB2			LTIB3			LTIB4			LLMAL			LMMAL			LHEE			LMT1			LMT2			LMT5			RTHI			RTHI2			RTHI3			RTHI4			RLFC			RMFC			RTIB1			RTIB2			RTIB3			RTIB4			RLMAL			RMMAL			RHEE			RMT1			RMT2			RMT5			*61			*62			
		X1	Y1	Z1	X2	Y2	Z2	X3	Y3	Z3	X4	Y4	Z4	X5	Y5	Z5	X6	Y6	Z6	X7	Y7	Z7	X8	Y8	Z8	X9	Y9	Z9	X10	Y10	Z10	X11	Y11	Z11	X12	Y12	Z12	X13	Y13	Z13	X14	Y14	Z14	X15	Y15	Z15	X16	Y16	Z16	X17	Y17	Z17	X18	Y18	Z18	X19	Y19	Z19	X20	Y20	Z20	X21	Y21	Z21	X22	Y22	Z22	X23	Y23	Z23	X24	Y24	Z24	X25	Y25	Z25	X26	Y26	Z26	X27	Y27	Z27	X28	Y28	Z28	X29	Y29	Z29	X30	Y30	Z30	X31	Y31	Z31	X32	Y32	Z32	X33	Y33	Z33	X34	Y34	Z34	X35	Y35	Z35	X36	Y36	Z36	X37	Y37	Z37	X38	Y38	Z38	X39	Y39	Z39	X40	Y40	Z40	X41	Y41	Z41	X42	Y42	Z42	X43	Y43	Z43	X44	Y44	Z44	X45	Y45	Z45	X46	Y46	Z46	X47	Y47	Z47	X48	Y48	Z48	X49	Y49	Z49	X50	Y50	Z50	X51	Y51	Z51	X52	Y52	Z52	X53	Y53	Z53	X54	Y54	Z54	X55	Y55	Z55	X56	Y56	Z56	X57	Y57	Z57	X58	Y58	Z58	X59	Y59	Z59	X60	Y60	Z60	X61	Y61	Z61	X62	Y62	Z62	X63	Y63	Z63	

1	0	-202.5272369384766	1791.919921875	-1151.284301757813	-327.5623168945313	1729.992309570313	-1166.611938476563	-350.1730346679688	1691.888671875	-1026.56884765625	-379.1978454589844	1575.122436523438	-1083.31103515625	-400.9620666503907	1253.756591796875	-1084.239990234375	-254.1022338867188	1502.567626953125	-1079.049926757813	-308.1954345703126	1532.486694335938	-1256.565307617188	-334.7437133789063	1317.104370117188	-1328.221923828125	-294.2238769531251	1294.426635742188	-1312.447143554688	-332.8723144531251	1248.4892578125	-1328.328002929688	-343.5937194824219	1185.906616210938	-1319.402099609375	-360.6043090820313	1179.880004882813	-1254.519165039063	-183.380126953125	950.354187011719	-1286.531372070313	-234.0205230712891	934.0039672851565	-1342.11572265625	-137.6125183105469	880.7795410156252	-1307.230346679688	-315.6274414062501	1516.744018554688	-907.6678466796877	-364.0646057128907	1305.423461914063	-829.6638183593752	-324.6015625000001	1280.881103515625	-839.766052246094	-363.2247009277344	1236.191650390625	-827.6679687500002	-357.0715026855469	1173.25439453125	-827.4893798828127	-378.4217529296876	1162.625122070313	-901.6502075195315	-182.758544921875	941.8018798828127	-858.1970214843752	-240.9039764404297	920.3769531250002	-815.055603027344	-143.1441497802735	863.404968261719	-832.0181884765627	-210.4514923095704	1085.473510742188	-1185.683715820313	-225.4902038574219	1082.767944335938	-952.9924926757815	-401.7815246582032	1126.33837890625	-1080.793579101563	-407.3387145996095	1097.5947265625	-1109.70263671875	-413.7229614257814	1097.108520507813	-1054.434448242188	-332.0061035156251	829.4765625000002	-1259.169921875	-293.4268798828126	754.2088623046876	-1262.178833007813	-246.6431121826172	758.4033203125001	-1261.918334960938	-316.3258361816407	700.7405395507814	-1250.295654296875	-298.0913696289063	567.9939575195314	-1240.375122070313	-302.8837890625001	546.8066406250001	-1109.502807617188	-269.0338439941407	342.0899658203126	-1203.717041015625	-340.9375915527344	305.7008666992188	-1242.64111328125	-298.3882446289063	297.5752563476563	-1229.374633789063	-291.2145385742188	218.7342987060547	-1195.971435546875	-357.0776367187501	128.3587799072266	-1209.6962890625	-321.8963928222657	144.5851135253907	-1128.865966796875	-415.0122070312501	96.35390472412112	-1157.039916992188	-201.845687866211	60.40108108520509	-1139.119506835938	-202.0011444091797	54.12788009643556	-1185.682373046875	-255.2521667480469	38.65729904174805	-1231.651000976563	-315.3872375488282	816.981628417969	-897.245056152344	-288.4341125488282	757.0924072265626	-898.536315917969	-255.1069946289063	754.8290405273439	-902.821960449219	-326.3383789062501	684.0030517578126	-916.6905517578127	-336.5255737304688	546.1271362304689	-931.2263793945315	-319.1281127929688	542.1693725585939	-1063.80029296875	-285.4310302734376	361.3226013183594	-956.0097656250002	-357.4196166992188	283.9790039062501	-945.6267700195315	-311.0853881835938	279.6625976562501	-948.7957763671877	-290.9533081054688	235.703109741211	-982.6314697265627	-343.3480834960938	123.8584671020508	-976.1793212890627	-316.2304382324219	139.0701293945313	-1057.86328125	-399.9544067382814	91.71985626220705	-1039.243774414063	-180.7564239501953	56.40433502197267	-1033.154418945313	-189.7355346679688	56.00835418701173	-994.2854614257815	-236.6292419433594	36.34402084350587	-944.6894531250002	nan	nan	nan	nan	nan	nan	
2	0.005	-201.2925872802735	1791.788330078125	-1150.864379882813	-327.1138916015626	1730.057861328125	-1166.856811523438	-349.9649047851563	1691.919555664063	-1026.7861328125	-378.9927062988282	1575.223022460938	-1083.65185546875	-401.9532165527345	1253.706176757813	-1084.943359375	-253.7006988525391	1502.605224609375	-1079.2138671875	-307.3152160644532	1532.593994140625	-1256.837890625	-333.8131713867188	1317.33837890625	-1328.527709960938	-293.6218872070313	1294.214721679688	-1313.419311523438	-332.2844238281251	1248.478637695313	-1328.580932617188	-342.8999023437501	1185.9619140625	-1319.622802734375	-360.0132141113282	1179.94921875	-1254.794555664063	-183.0597229003907	950.3667602539065	-1286.350341796875	-233.3777923583985	934.066589355469	-1342.197875976563	-136.9405364990235	880.7917480468752	-1307.220581054688	-315.6246032714844	1516.797241210938	-907.8250732421877	-364.4406433105469	1305.487915039063	-830.0039062500002	-325.0868225097657	1280.9228515625	-839.9504394531252	-363.7606506347657	1236.211181640625	-828.0688476562502	-357.3916931152344	1172.771728515625	-827.4547119140627	-378.5883789062501	1162.711669921875	-902.0613403320315	-183.2302703857422	941.7064208984377	-858.0747680664065	-242.0999298095704	919.9628906250002	-815.4931640625002	-143.9557342529297	863.1004028320315	-832.2678833007815	-210.0520935058594	1085.488647460938	-1185.804809570313	-224.7402343750001	1082.912841796875	-953.1807250976565	-401.4578247070314	1126.393798828125	-1080.899780273438	-407.0310668945314	1097.6572265625	-1109.83349609375	-413.2992553710939	1097.145751953125	-1054.509887695313	-332.1202392578126	829.6201171875002	-1259.1845703125	-293.5915222167969	754.3380126953126	-1262.414306640625	-247.1596832275391	758.8274536132814	-1261.936401367188	-316.3883361816407	700.8370361328126	-1250.439575195313	-298.4331970214844	568.0905761718751	-1240.575439453125	-302.6033325195313	546.8278198242189	-1109.75830078125	-269.4140319824219	342.1815795898438	-1204.255737304688	-341.4704895019532	305.8522644042969	-1242.76513671875	-298.8355712890626	297.5618591308594	-1229.88623046875	-291.4618530273438	218.8304595947266	-1196.4541015625	-357.1319885253907	128.2692108154297	-1209.916625976563	-320.7519531250001	143.8308868408203	-1129.2099609375	-415.0357971191407	96.42886352539065	-1157.0849609375	-202.0008392333985	60.34064102172853	-1139.164428710938	-202.0352020263672	53.9950294494629	-1185.802734375	-255.7335052490235	38.19454956054688	-1231.182006835938	-315.0991821289063	817.028747558594	-897.2889404296877	-288.1232910156251	757.0669555664064	-898.9530029296877	-254.6839447021485	755.0449218750001	-902.9538574218752	-326.1270751953126	684.0812988281251	-916.750915527344	-335.5455322265626	546.4983520507814	-930.943054199219	-318.8463134765626	542.2343750000001	-1063.874633789063	-284.9688415527344	361.4797058105469	-956.1948852539065	-357.2297363281251	284.0580139160157	-945.5979003906252	-310.9815673828126	279.6814270019532	-948.7883300781252	-290.8313903808594	235.7200775146485	-982.6340942382815	-343.3603820800782	123.9156036376953	-976.161560058594	-316.2268371582032	139.1427001953125	-1057.842895507813	-399.5893859863282	92.19781494140626	-1039.092529296875	-181.8056030273438	57.12926483154298	-1033.470092773438	-189.7620391845703	55.99965286254884	-994.2524414062502	-236.6341705322266	36.33303451538087	-944.706970214844	nan	nan	nan	nan	nan	nan	
3	0.01	-201.5178680419922	1792.112915039063	-1151.192626953125	-326.6972961425782	1730.10791015625	-1167.078857421875	-349.9457092285157	1691.95458984375	-1027.024780273438	-378.6868591308594	1575.27783203125	-1083.92919921875	-400.2050170898439	1253.785400390625	-1084.646606445313	-253.3759460449219	1502.654296875	-1079.314208984375	-306.7150878906251	1532.623413085938	-1257.080688476563	-332.9456481933594	1317.356689453125	-1328.81591796875	-293.0082702636719	1294.197265625	-1313.535278320313	-331.5462036132813	1248.615600585938	-1328.765625	-342.2397155761719	1186.037475585938	-1319.895141601563	-359.4445190429688	1180.035888671875	-1255.028442382813	-182.3805541992188	950.3393554687502	-1286.3369140625	-232.6195831298829	934.1209106445315	-1342.34619140625	-136.4697570800782	880.742614746094	-1307.096557617188	-315.6531677246094	1516.885986328125	-907.996520996094	-364.8712158203126	1305.581298828125	-830.3096923828127	-325.4656982421876	1280.951904296875	-840.120300292969	-364.2486267089844	1236.190551757813	-828.4250488281252	-357.9530944824219	1172.886108398438	-827.7630615234377	-378.6758422851563	1162.841430664063	-902.5761718750002	-183.7081909179688	941.6976318359377	-857.848571777344	-242.9573516845704	920.044372558594	-815.4651489257815	-144.2667694091797	863.1331176757815	-832.132263183594	-209.6783447265626	1085.53564453125	-1186.071655273438	-224.4175262451172	1082.909545898438	-953.3808593750002	-401.0827941894532	1126.477172851563	-1080.965942382813	-406.6792602539064	1097.741333007813	-1109.888061523438	-413.0075683593751	1097.236694335938	-1054.597534179688	-332.2417907714844	829.7456054687502	-1259.168579101563	-293.7643432617188	754.4318237304689	-1262.588012695313	-247.3929443359376	758.9051513671876	-1262.380004882813	-316.6257629394532	700.9279174804689	-1250.522094726563	-298.7535400390626	568.2076416015626	-1240.765991210938	-302.3292541503907	546.8751220703126	-1109.955322265625	-269.6262512207032	342.3551635742188	-1204.745239257813	-341.9283142089844	305.9216003417969	-1242.861572265625	-299.2124633789063	297.7301940917969	-1230.40234375	-291.5270690917969	218.2369842529297	-1197.029418945313	-357.3106384277344	128.2505950927735	-1210.079345703125	-320.7506713867188	143.9012908935547	-1129.543579101563	-415.0023803710939	96.41778564453128	-1157.174072265625	-202.1099090576172	60.28658294677736	-1139.248779296875	-202.0415039062501	53.87155914306642	-1185.849365234375	-255.7386322021485	38.04782485961915	-1231.351928710938	-314.8889770507813	817.0887451171877	-897.289489746094	-288.6600952148438	756.1713867187501	-900.1105957031252	-255.0502929687501	754.0969238281251	-903.684509277344	-325.8764648437501	684.1865844726564	-916.8366699218752	-335.0715637207032	546.5784301757814	-931.087097167969	-318.6238403320313	542.2998657226564	-1063.945190429688	-284.6993103027344	361.4968872070313	-956.1709594726565	-356.8224182128907	284.1071472167969	-945.6239013671877	-310.7867126464844	279.8873901367188	-947.6111450195315	-290.2502441406251	235.0917968750001	-982.5489501953127	-343.3348999023438	123.9312591552735	-976.1694335937502	-316.1705932617188	139.1656036376953	-1057.825927734375	-399.5761108398439	92.24550628662111	-1039.073364257813	-180.7947387695313	56.35435867309572	-1033.190551757813	-189.7116851806641	55.95292282104494	-994.271179199219	-236.6239471435547	36.33406448364259	-944.6931762695315	nan	nan	nan	nan	nan	nan	
4	0.015	-201.1669006347657	1792.192993164063	-1151.201416015625	-325.5686645507813	1729.760009765625	-1167.318725585938	-349.4877319335938	1691.99462890625	-1027.463500976563	-378.3721313476563	1575.292846679688	-1084.244262695313	-399.8840332031251	1253.762329101563	-1084.868041992188	-253.0186004638672	1502.705688476563	-1079.403686523438	-306.5864868164063	1532.548461914063	-1256.955322265625	-332.2655639648438	1317.434326171875	-1329.057861328125	-292.2565002441407	1294.45751953125	-1312.705322265625	-330.8677062988282	1248.66748046875	-1329.006225585938	-341.4427490234376	1186.154418945313	-1320.150512695313	-358.8887939453126	1180.125854492188	-1255.316772460938	-182.1403198242188	950.8474121093752	-1286.3349609375	-231.9481353759766	934.0945434570315	-1342.453247070313	-136.5247497558594	880.4602661132815	-1306.2333984375	-315.6401062011719	1516.909912109375	-908.1382446289065	-365.0582580566407	1305.664184570313	-830.6673583984377	-325.7522277832032	1280.974975585938	-840.3611450195315	-364.5204162597657	1236.1884765625	-828.8336181640627	-358.2627258300782	1172.924194335938	-828.067810058594	-378.9445800781251	1162.892333984375	-903.0261230468752	-184.0149688720703	941.6895141601565	-857.7390136718752	-243.3601226806641	920.0188598632815	-815.5115356445315	-144.6640625	863.1926879882815	-831.130554199219	-209.2916717529297	1085.510864257813	-1186.310913085938	-223.9615173339844	1083.01123046875	-953.5566406250002	-400.6858215332032	1126.521118164063	-1081.000854492188	-406.4688415527345	1097.80908203125	-1110.00390625	-412.7057189941407	1097.335205078125	-1054.614624023438	-332.3644714355469	829.854675292969	-1259.176879882813	-293.9894714355469	754.5307617187501	-1262.74609375	-247.6808776855469	758.9826660156251	-1262.714477539063	-316.8220520019532	701.0371093750001	-1250.585205078125	-299.1818542480469	568.3061523437501	-1240.937866210938	-301.9935302734376	546.8740844726564	-1110.203735351563	-269.2889099121094	341.9387512207032	-1205.110473632813	-342.4372863769532	306.0241394042969	-1242.950073242188	-299.7211914062501	297.8687133789063	-1230.894409179688	-291.7475585937501	218.2614746093751	-1197.400756835938	-357.4896240234376	128.2024078369141	-1210.2451171875	-320.7644653320313	143.9519805908203	-1129.87353515625	-415.0108642578126	96.46669769287112	-1157.190063476563	-202.2406616210938	60.24119567871095	-1139.2822265625	-202.0953826904297	53.64960861206056	-1185.897094726563	-255.7900085449219	37.9288673400879	-1231.444213867188	-314.4689636230469	817.231628417969	-897.4349365234377	-288.4518432617188	756.1922607421876	-900.1591796875002	-254.8734588623047	754.1252441406251	-903.708923339844	-325.5899353027344	684.2892456054689	-916.8804321289065	-334.7394714355469	546.7322387695314	-931.1442871093752	-318.2259521484376	542.3168945312501	-1063.95263671875	-284.4848632812501	361.5352783203126	-956.2105102539065	-356.6687316894532	284.2270202636719	-945.5584106445315	-310.6937866210938	279.8759155273438	-947.5378417968752	-290.1431579589844	235.0831604003907	-982.5896606445315	-343.3215026855469	123.9728088378907	-976.1005859375002	-316.1649169921876	139.1688537597657	-1057.829223632813	-399.5784606933595	92.27165985107423	-1039.0517578125	-180.7868194580078	56.34127426147462	-1033.216674804688	-189.7333984375	55.90491104125978	-994.2725219726565	-236.6741027832032	36.32680892944337	-944.760925292969	nan	nan	nan	nan	nan	nan	
